<?xml version="1.0" encoding="UTF-8" standalone="no"?>
<!-- Created with Inkscape (http://www.inkscape.org/) -->

<svg
   xmlns:dc="http://purl.org/dc/elements/1.1/"
   xmlns:cc="http://creativecommons.org/ns#"
   xmlns:rdf="http://www.w3.org/1999/02/22-rdf-syntax-ns#"
   xmlns:svg="http://www.w3.org/2000/svg"
   xmlns="http://www.w3.org/2000/svg"
   xmlns:sodipodi="http://sodipodi.sourceforge.net/DTD/sodipodi-0.dtd"
   xmlns:inkscape="http://www.inkscape.org/namespaces/inkscape"
   width="210mm"
   height="297mm"
   viewBox="0 0 744.09448819 1052.3622047"
   id="svg2"
   version="1.1"
   inkscape:version="0.91 r13725"
   sodipodi:docname="mp3md.svg">
  <defs
     id="defs4" />
  <sodipodi:namedview
     id="base"
     pagecolor="#ffffff"
     bordercolor="#666666"
     borderopacity="1.0"
     inkscape:pageopacity="0.0"
     inkscape:pageshadow="2"
     inkscape:zoom="1"
     inkscape:cx="227.05285"
     inkscape:cy="801.67428"
     inkscape:document-units="px"
     inkscape:current-layer="layer1"
     showgrid="false"
     inkscape:window-width="1440"
     inkscape:window-height="852"
     inkscape:window-x="0"
     inkscape:window-y="0"
     inkscape:window-maximized="1" />
  <metadata
     id="metadata7">
    <rdf:RDF>
      <cc:Work
         rdf:about="">
        <dc:format>image/svg+xml</dc:format>
        <dc:type
           rdf:resource="http://purl.org/dc/dcmitype/StillImage" />
        <dc:title></dc:title>
      </cc:Work>
    </rdf:RDF>
  </metadata>
  <g
     inkscape:label="Layer 1"
     inkscape:groupmode="layer"
     id="layer1">
    <path
       style="font-style:normal;font-variant:normal;font-weight:normal;font-stretch:normal;font-size:180px;line-height:125%;font-family:'Tombats Three';-inkscape-font-specification:'Tombats Three';letter-spacing:0px;word-spacing:0px;fill:#000000;fill-opacity:1;stroke:none;stroke-width:1px;stroke-linecap:butt;stroke-linejoin:miter;stroke-opacity:1"
       d="m 284.56285,228.00792 q 2.52,1.8 9.18,1.98 -2.52,0 11.16,0 -0.18,0.36 -0.18,0.9 0,0.54 0.36,1.62 0.36,0.9 0.36,1.08 0,0.9 -1.62,1.08 -1.08,0.18 -6.12,-0.36 -5.04,-0.54 -5.58,-0.54 -7.56,0 -7.74,0 -3.96,-0.72 -3.96,-4.68 -1.44,-16.38 -18.72,-27.54 -16.02,-10.44 -35.82,-10.44 -17.1,0 -35.46,13.14 -16.92,12.06 -16.38,19.44 0.18,1.44 -3.06,5.4 -3.06,3.78 -5.22,4.68 -1.98,0.9 -5.22,0.9 l -2.16,0 q -3.78,0 -6.12,1.08 l -5.22,0 0,-3.06 q 2.16,-2.88 7.02,-3.06 6.48,-0.36 8.46,-1.08 2.16,-0.9 4.68,-3.42 2.52,-2.52 2.7,-3.42 1.44,-9.18 17.82,-21.6 18.9,-14.4 38.16,-14.4 22.32,0 40.14,11.88 18.9,12.6 19.44,30.78 l -0.9,-0.36 z"
       id="path4199" />
    <path
       style="font-style:normal;font-variant:normal;font-weight:normal;font-stretch:normal;font-size:180px;line-height:125%;font-family:'Tombats Three';-inkscape-font-specification:'Tombats Three';letter-spacing:0px;word-spacing:0px;fill:#000000;fill-opacity:1;stroke:none;stroke-width:1px;stroke-linecap:butt;stroke-linejoin:miter;stroke-opacity:1"
       d="m 278.44285,252.48792 q 0,25.92 -14.94,44.64 -14.76,18.54 -36,18.54 -21.24,0 -36.18,-18.54 -14.76,-18.72 -14.76,-44.64 0,-25.2 14.94,-41.22 14.58,-15.48 36.36,-15.48 21.78,0 36,15.3 14.58,16.02 14.58,41.4 z"
       id="path4197" />
    <g
       id="g4203"
       style="fill:#da771c;fill-opacity:1;stroke:none">
      <path
         id="path4201"
         d="m 311.74285,257.16792 q 0,8.82 -4.68,14.94 -4.5,5.94 -11.16,6.66 -10.62,1.08 -13.86,-5.76 -1.98,-3.96 -1.98,-15.84 0,-12.24 1.44,-15.3 2.88,-6.48 14.4,-6.12 6.66,0.18 11.16,6.48 4.68,6.12 4.68,14.94 z"
         style="font-style:normal;font-variant:normal;font-weight:normal;font-stretch:normal;font-size:180px;line-height:125%;font-family:'Tombats Three';-inkscape-font-specification:'Tombats Three';letter-spacing:0px;word-spacing:0px;fill:#da771c;fill-opacity:1;stroke:none;stroke-width:1px;stroke-linecap:butt;stroke-linejoin:miter;stroke-opacity:1" />
      <path
         id="path4195"
         d="m 174.58285,256.98792 q 0,13.32 -0.9,15.48 -2.7,6.48 -15.12,5.76 -6.84,-0.36 -11.52,-6.48 -4.68,-6.12 -4.68,-14.76 0,-8.46 4.86,-14.4 4.32,-5.58 11.34,-6.84 1.98,-0.36 3.78,-0.36 7.74,0 10.44,6.84 1.8,4.68 1.8,14.76 z"
         style="font-style:normal;font-variant:normal;font-weight:normal;font-stretch:normal;font-size:180px;line-height:125%;font-family:'Tombats Three';-inkscape-font-specification:'Tombats Three';letter-spacing:0px;word-spacing:0px;fill:#da771c;fill-opacity:1;stroke:none;stroke-width:1px;stroke-linecap:butt;stroke-linejoin:miter;stroke-opacity:1" />
    </g>
    <path
       style="font-style:normal;font-variant:normal;font-weight:normal;font-stretch:normal;font-size:180px;line-height:125%;font-family:'Tombats Three';-inkscape-font-specification:'Tombats Three';letter-spacing:0px;word-spacing:0px;fill:#ffffff;fill-opacity:1;stroke:none;stroke-width:1px;stroke-linecap:butt;stroke-linejoin:miter;stroke-opacity:1"
       d="m 273.04285,252.48792 q 0,-23.4 -13.14,-37.62 -12.6,-13.68 -32.04,-13.68 -19.26,0 -32.22,13.5 -13.68,14.4 -13.68,37.8 0,24.3 13.32,41.04 13.5,16.74 32.22,16.74 18.72,0 32.04,-16.74 13.5,-16.74 13.5,-41.04 z"
       id="path4193" />
    <path
       style="font-style:normal;font-variant:normal;font-weight:normal;font-stretch:normal;font-size:180px;line-height:125%;font-family:'Tombats Three';-inkscape-font-specification:'Tombats Three';letter-spacing:0px;word-spacing:0px;fill:#000000;fill-opacity:1;stroke:none;stroke-width:1px;stroke-linecap:butt;stroke-linejoin:miter;stroke-opacity:1"
       d="m 237.04285,241.50792 q 0,4.86 -2.34,4.86 -2.88,0 -2.88,-8.64 0,-5.22 2.16,-8.64 3.06,1.44 3.06,12.42 z"
       id="path4191" />
    <path
       style="font-style:normal;font-variant:normal;font-weight:normal;font-stretch:normal;font-size:180px;line-height:125%;font-family:'Tombats Three';-inkscape-font-specification:'Tombats Three';letter-spacing:0px;word-spacing:0px;fill:#000000;fill-opacity:1;stroke:none;stroke-width:1px;stroke-linecap:butt;stroke-linejoin:miter;stroke-opacity:1"
       d="m 216.52285,247.80792 q -3.42,0 -3.42,-10.08 0,-5.58 2.16,-6.66 3.24,8.82 3.24,13.32 0,3.42 -1.98,3.42 z"
       id="path4189" />
    <path
       style="font-style:normal;font-variant:normal;font-weight:normal;font-stretch:normal;font-size:180px;line-height:125%;font-family:'Tombats Three';-inkscape-font-specification:'Tombats Three';letter-spacing:0px;word-spacing:0px;fill:#000000;fill-opacity:1;stroke:none;stroke-width:1px;stroke-linecap:butt;stroke-linejoin:miter;stroke-opacity:1"
       d="m 253.60285,267.96792 q -5.04,2.52 -11.34,5.04 5.04,8.82 5.04,16.2 0,2.88 -2.34,5.94 -2.34,2.88 -5.76,2.88 -5.58,0 -9.54,-7.38 -6.12,-11.52 -6.48,-11.88 -5.22,1.08 -9.36,1.08 -1.26,0 -4.5,-0.72 -3.24,-0.72 -4.68,-0.54 l -0.72,-3.6 q 1.98,-0.36 5.22,0.54 3.24,0.72 4.68,0.72 15.84,0 37.98,-11.52 l 1.8,3.24 z"
       id="path4187" />
    <path
       style="font-style:normal;font-variant:normal;font-weight:normal;font-stretch:normal;font-size:180px;line-height:125%;font-family:'Tombats Three';-inkscape-font-specification:'Tombats Three';letter-spacing:0px;word-spacing:0px;fill:#000000;fill-opacity:1;stroke:none;stroke-width:1px;stroke-linecap:butt;stroke-linejoin:miter;stroke-opacity:1"
       d="m 244.60285,289.20792 q 0,-7.2 -4.86,-15.3 -2.7,1.08 -5.4,1.98 2.88,4.32 3.6,5.94 1.44,3.42 1.62,6.84 l -1.8,0 q -0.18,-4.14 -5.22,-12.24 -3.42,1.08 -6.48,1.8 2.88,5.4 5.76,10.8 3.6,6.3 7.38,6.3 1.98,0 3.6,-1.98 1.8,-1.98 1.8,-4.14 z"
       id="path4162" />
    <path
       style="fill:#ffffff;fill-rule:evenodd;stroke:#000000;stroke-width:3;stroke-linecap:butt;stroke-linejoin:miter;stroke-opacity:1;stroke-miterlimit:4;stroke-dasharray:none"
       d="m 198.5,265.8622 c 15.96614,-4.87426 35.92738,-6.32415 56.5,-7.25 4.50574,11.33333 2.52313,22.66667 1.25,34 -13.24523,4.4601 -19.64763,13.84704 -48.25,7.25 -5.98895,-8.51105 -8.84051,-20.15949 -9.5,-34 z"
       id="path4142"
       inkscape:connector-curvature="0"
       sodipodi:nodetypes="ccccc" />
    <path
       style="fill:none;fill-rule:evenodd;stroke:#000000;stroke-width:1.5;stroke-linecap:butt;stroke-linejoin:miter;stroke-miterlimit:4;stroke-dasharray:none;stroke-opacity:1"
       d="m 198.75,265.8622 c -5.89052,-0.59566 -11.78105,-1.08666 -17.67157,-3.75 l -2.07843,-0.5 0,0"
       id="path4144"
       inkscape:connector-curvature="0"
       sodipodi:nodetypes="cccc" />
    <path
       style="fill:none;fill-rule:evenodd;stroke:#000000;stroke-width:1.5;stroke-linecap:butt;stroke-linejoin:miter;stroke-opacity:1;stroke-miterlimit:4;stroke-dasharray:none"
       d="m 207.90901,299.27121 -6.40901,4.59099 0,0 0,0"
       id="path4146"
       inkscape:connector-curvature="0"
       sodipodi:nodetypes="cccc" />
    <path
       style="fill:none;fill-rule:evenodd;stroke:#000000;stroke-width:1.5;stroke-linecap:butt;stroke-linejoin:miter;stroke-miterlimit:4;stroke-dasharray:none;stroke-opacity:1"
       d="m 255.16367,257.92232 c 9.04846,-2.62842 15.24677,-7.03819 20.0481,-12.32107"
       id="path4148"
       inkscape:connector-curvature="0"
       sodipodi:nodetypes="cc" />
    <path
       style="fill:none;fill-rule:evenodd;stroke:#000000;stroke-width:1px;stroke-linecap:butt;stroke-linejoin:miter;stroke-opacity:1"
       d="m 256.32621,292.75274 6.89429,2.65165"
       id="path4152"
       inkscape:connector-curvature="0" />
    <g
       style="font-style:normal;font-variant:normal;font-weight:normal;font-stretch:normal;font-size:40px;line-height:125%;font-family:Catull;-inkscape-font-specification:Catull;letter-spacing:0px;word-spacing:0px;fill:#da291c;fill-opacity:1;stroke:none;stroke-width:1px;stroke-linecap:butt;stroke-linejoin:miter;stroke-opacity:1"
       id="text4154">
      <path
         d="m 225.42785,268.9391 c 4.04074,-2.15584 9.57876,-1.69155 15.7465,-4.04522 2.7823,3.38632 0.26617,13.29584 0.19963,20.24321 -0.0155,1.61451 -0.60759,3.43092 -1.02426,4.25123 -0.40365,0.82031 -1.10026,1.4974 -2.08984,2.03125 -0.97657,0.53385 -2.08334,0.80078 -3.32031,0.80078 -1.41927,0 -2.55209,-0.40364 -3.39844,-1.21093 -0.84635,-0.82031 -1.26953,-1.875 -1.26953,-3.16407 0,-1.30208 0.5013,-2.42187 1.5039,-3.35937 1.00261,-0.95052 2.29818,-1.42578 3.88672,-1.42578 0.52083,0 0.97656,0.0456 1.36719,0.13672 0.40365,0.0912 1.05469,0.32552 1.95312,0.70312 -0.0181,-4.63207 -0.94937,-5.15492 0,-14.14062 l -11.62109,3.61328 c 0.84372,7.13014 0.11002,11.10545 0,16.32812 -0.0332,1.57517 -0.20833,2.80599 -0.625,3.69141 -0.41667,0.87239 -1.13281,1.56901 -2.14844,2.08984 -1.01562,0.52083 -2.12239,0.78125 -3.32031,0.78125 -1.41927,0 -2.54558,-0.40364 -3.37891,-1.21093 -0.82031,-0.79427 -1.23046,-1.83594 -1.23046,-3.125 0,-1.36719 0.49479,-2.51303 1.48437,-3.4375 0.98959,-0.9375 2.28516,-1.40625 3.88672,-1.40625 1.01563,0 1.54955,-0.89831 2.79955,-0.29936 -0.72709,-8.40774 -1.68969,-17.98182 0.59889,-17.84518 z"
         style="font-style:normal;font-variant:normal;font-weight:normal;font-stretch:normal;font-family:'Marker Felt';-inkscape-font-specification:'Marker Felt';fill:#da291c;fill-opacity:1"
         id="path4159"
         inkscape:connector-curvature="0"
         sodipodi:nodetypes="ccsccscscsccccscsscscscc" />
    </g>
    <text
       xml:space="preserve"
       style="font-style:normal;font-variant:normal;font-weight:normal;font-stretch:normal;font-size:40px;line-height:125%;font-family:Catull;-inkscape-font-specification:Catull;letter-spacing:0px;word-spacing:0px;fill:#000000;fill-opacity:1;stroke:none;stroke-width:1px;stroke-linecap:butt;stroke-linejoin:miter;stroke-opacity:1"
       x="150"
       y="358.36221"
       id="text4215"
       sodipodi:linespacing="125%"><tspan
         sodipodi:role="line"
         id="tspan4217"
         x="150"
         y="358.36221"
         style="font-style:normal;font-variant:normal;font-weight:normal;font-stretch:normal;font-size:50px;font-family:'Block Berthold';-inkscape-font-specification:'Block Berthold'"><tspan
   style="font-size:50px;fill:#da771c;fill-opacity:1"
   id="tspan4221">mp</tspan>3<tspan
   style="font-size:50px;fill:#da2900;fill-opacity:1"
   id="tspan4219">md</tspan></tspan></text>
  </g>
</svg>
